<svg width="375" height="20" viewBox="0 0 375 20" fill="none" xmlns="http://www.w3.org/2000/svg">
<path fill-rule="evenodd" clip-rule="evenodd" d="M0 0V20H375V0H0Z" fill="black" fill-opacity="0.01"/>
<path d="M30.377 13.5C32.1758 13.5 33.2422 12.6152 33.2422 11.127C33.2422 10.0078 32.5098 9.2168 31.3555 9.07031V8.97656C32.1699 8.83008 32.8145 8.0332 32.8145 7.1543C32.8145 5.85938 31.8652 5.04492 30.3125 5.04492H27.0781V13.5H30.377ZM28.1328 5.97656H30.0898C31.1387 5.97656 31.748 6.47461 31.748 7.33594C31.748 8.23242 31.0977 8.68945 29.8203 8.68945H28.1328V5.97656ZM28.1328 12.5684V9.59766H30.1191C31.4668 9.59766 32.1582 10.0957 32.1582 11.0742C32.1582 12.0527 31.4902 12.5684 30.2188 12.5684H28.1328ZM40.0977 12.5508H36.0195V5.04492H34.9648V13.5H40.0977V12.5508ZM44.9844 4.8457C42.5938 4.8457 41.1055 6.55078 41.1055 9.26953C41.1055 11.9766 42.5586 13.6992 44.9844 13.6992C47.3984 13.6992 48.8633 11.9707 48.8633 9.26953C48.8633 6.55664 47.3867 4.8457 44.9844 4.8457ZM44.9844 5.81836C46.7129 5.81836 47.7793 7.1543 47.7793 9.26953C47.7793 11.3672 46.7188 12.7266 44.9844 12.7266C43.2266 12.7266 42.1895 11.3672 42.1895 9.26953C42.1895 7.1543 43.2617 5.81836 44.9844 5.81836ZM54.0957 13.6992C55.8945 13.6992 57.2305 12.6973 57.5117 11.1445H56.4395C56.1699 12.123 55.2734 12.7266 54.0957 12.7266C52.4668 12.7266 51.4473 11.3965 51.4473 9.27539C51.4473 7.1543 52.4668 5.81836 54.0898 5.81836C55.2559 5.81836 56.1582 6.50391 56.4395 7.59375H57.5117C57.2598 5.96484 55.8711 4.8457 54.0898 4.8457C51.793 4.8457 50.3633 6.54492 50.3633 9.27539C50.3633 12 51.7988 13.6992 54.0957 13.6992Z" fill="black"/>
<path d="M315.812 14.5H316.867V6.04492H315.818L313.568 7.66211V8.77539L315.719 7.2168H315.812V14.5ZM322.234 14.6992C324.133 14.6992 325.223 13.0938 325.223 10.2871C325.223 7.48633 324.115 5.8457 322.234 5.8457C320.342 5.8457 319.234 7.48047 319.234 10.2695C319.234 13.082 320.33 14.6992 322.234 14.6992ZM322.234 13.7793C320.986 13.7793 320.295 12.5312 320.295 10.2695C320.295 8.03711 320.998 6.77148 322.234 6.77148C323.471 6.77148 324.162 8.02539 324.162 10.2695C324.162 12.5371 323.482 13.7793 322.234 13.7793ZM329.793 14.6992C331.691 14.6992 332.781 13.0938 332.781 10.2871C332.781 7.48633 331.674 5.8457 329.793 5.8457C327.9 5.8457 326.793 7.48047 326.793 10.2695C326.793 13.082 327.889 14.6992 329.793 14.6992ZM329.793 13.7793C328.545 13.7793 327.854 12.5312 327.854 10.2695C327.854 8.03711 328.557 6.77148 329.793 6.77148C331.029 6.77148 331.721 8.02539 331.721 10.2695C331.721 12.5371 331.041 13.7793 329.793 13.7793ZM337.639 7.93164C337.639 6.73633 336.895 5.89844 335.84 5.89844C334.785 5.89844 334.035 6.74219 334.035 7.93164C334.035 9.12695 334.785 9.9707 335.84 9.9707C336.895 9.9707 337.639 9.12695 337.639 7.93164ZM335.84 9.2207C335.318 9.2207 334.973 8.71094 334.973 7.93164C334.973 7.15234 335.312 6.64844 335.84 6.64844C336.367 6.64844 336.701 7.14062 336.701 7.93164C336.701 8.70508 336.355 9.2207 335.84 9.2207ZM335.746 14.5L338.646 10.5332L341.928 6.04492H340.861L337.896 10.0938L334.668 14.5H335.746ZM342.531 12.6074C342.531 11.4121 341.787 10.5742 340.732 10.5742C339.678 10.5742 338.928 11.418 338.928 12.6074C338.928 13.8027 339.678 14.6465 340.732 14.6465C341.787 14.6465 342.531 13.8027 342.531 12.6074ZM340.732 13.8965C340.211 13.8965 339.865 13.3867 339.865 12.6074C339.865 11.8281 340.205 11.3242 340.732 11.3242C341.26 11.3242 341.594 11.8164 341.594 12.6074C341.594 13.3809 341.248 13.8965 340.732 13.8965Z" fill="#030303"/>
<path opacity="0.4" d="M348.5 5.5H365.5C366.605 5.5 367.5 6.39543 367.5 7.5V13C367.5 14.1046 366.605 15 365.5 15H364.469H348.5C347.395 15 346.5 14.1046 346.5 13V7.5C346.5 6.39543 347.395 5.5 348.5 5.5Z" stroke="black"/>
<path fill-rule="evenodd" clip-rule="evenodd" d="M369 12.374C369.863 12.1519 370.5 11.3687 370.5 10.437C370.5 9.50537 369.863 8.72217 369 8.5V12.374Z" fill="black" fill-opacity="0.5"/>
<path fill-rule="evenodd" clip-rule="evenodd" d="M348 8C348 7.44772 348.448 7 349 7H365C365.552 7 366 7.44772 366 8V12.5C366 13.0523 365.552 13.5 365 13.5H349C348.448 13.5 348 13.0523 348 12.5V8Z" fill="black"/>
<path d="M168.203 13.7051C170.354 13.7051 171.631 12.0234 171.631 9.17578C171.631 8.10352 171.426 7.20117 171.033 6.50391C170.465 5.41992 169.486 4.83398 168.25 4.83398C166.41 4.83398 165.109 6.07031 165.109 7.80469C165.109 9.43359 166.281 10.6172 167.893 10.6172C168.883 10.6172 169.686 10.1543 170.084 9.35156H170.102C170.102 9.35156 170.125 9.35156 170.131 9.35156C170.143 9.35156 170.184 9.35156 170.184 9.35156C170.184 11.2852 169.451 12.4395 168.215 12.4395C167.488 12.4395 166.926 12.041 166.732 11.4023H165.227C165.479 12.791 166.656 13.7051 168.203 13.7051ZM168.256 9.41602C167.283 9.41602 166.592 8.72461 166.592 7.75781C166.592 6.81445 167.318 6.09375 168.262 6.09375C169.205 6.09375 169.932 6.82617 169.932 7.78125C169.932 8.72461 169.223 9.41602 168.256 9.41602ZM174.344 13.623C174.9 13.623 175.281 13.2246 175.281 12.6973C175.281 12.1641 174.9 11.7715 174.344 11.7715C173.793 11.7715 173.406 12.1641 173.406 12.6973C173.406 13.2246 173.793 13.623 174.344 13.623ZM174.344 9.22852C174.9 9.22852 175.281 8.83594 175.281 8.30859C175.281 7.77539 174.9 7.38281 174.344 7.38281C173.793 7.38281 173.406 7.77539 173.406 8.30859C173.406 8.83594 173.793 9.22852 174.344 9.22852ZM181.006 13.5H182.453V11.9238H183.596V10.6465H182.453V5.04492H180.32C178.826 7.29492 177.637 9.17578 176.875 10.5762V11.9238H181.006V13.5ZM178.275 10.5938C179.26 8.85938 180.139 7.4707 180.947 6.27539H181.029V10.6816H178.275V10.5938ZM187.059 13.5H188.57V5.04492H187.064L184.855 6.5918V8.04492L186.959 6.56836H187.059V13.5ZM199.785 13.5H201.408L198.402 5.04492H196.703L193.703 13.5H195.232L195.959 11.3379H199.07L199.785 13.5ZM197.471 6.65625H197.57L198.719 10.1426H196.311L197.471 6.65625ZM211.592 13.5V5.04492H209.822L207.279 11.2031H207.174L204.631 5.04492H202.861V13.5H204.268V7.55273H204.35L206.688 13.1719H207.766L210.104 7.55273H210.186V13.5H211.592Z" fill="#030303"/>
<path fill-rule="evenodd" clip-rule="evenodd" d="M68.4875 5C71.0505 5 73.3629 6.03955 75 7.70703L73.9119 8.76416C72.5538 7.36572 70.626 6.49219 68.4875 6.49219C66.3629 6.49219 64.446 7.35449 63.0896 8.7373L62 7.68164C63.6355 6.02881 65.9375 5 68.4875 5ZM72.8236 9.82129C71.7449 8.69189 70.2015 7.98438 68.4877 7.98438C66.7883 7.98438 65.2567 8.67969 64.1793 9.79248L65.2694 10.8486C66.0673 10.0054 67.2137 9.47656 68.4877 9.47656C69.777 9.47656 70.9357 10.0181 71.7346 10.8794L72.8236 9.82129ZM70.6444 11.9385C70.1263 11.3452 69.3523 10.9688 68.4875 10.9688C67.6389 10.9688 66.8778 11.3311 66.3601 11.9053L68.5225 14L70.6444 11.9385Z" fill="#030303"/>
<path fill-rule="evenodd" clip-rule="evenodd" d="M19.5 5C19.2239 5 19 5.22363 19 5.5V14C19 14.2764 19.2239 14.5 19.5 14.5H21C21.2761 14.5 21.5 14.2764 21.5 14V5.5C21.5 5.22363 21.2761 5 21 5H19.5ZM15.5 7.5C15.2239 7.5 15 7.72363 15 8V14C15 14.2764 15.2239 14.5 15.5 14.5H17C17.2761 14.5 17.5 14.2764 17.5 14V8C17.5 7.72363 17.2761 7.5 17 7.5H15.5ZM11 10C11 9.72363 11.2239 9.5 11.5 9.5H13C13.2761 9.5 13.5 9.72363 13.5 10V14C13.5 14.2764 13.2761 14.5 13 14.5H11.5C11.2239 14.5 11 14.2764 11 14V10ZM7.5 11.5C7.22388 11.5 7 11.7236 7 12V14C7 14.2764 7.22388 14.5 7.5 14.5H9C9.27612 14.5 9.5 14.2764 9.5 14V12C9.5 11.7236 9.27612 11.5 9 11.5H7.5Z" fill="black"/>
</svg>
